<mxfile host="app.diagrams.net" agent="Mozilla/5.0 (Windows NT 10.0; Win64; x64) AppleWebKit/537.36 (KHTML, like Gecko) Chrome/131.0.0.0 Safari/537.36" version="24.8.6">
  <diagram name="Page-1" id="H76p3a23tamOvtoRSgs7">
    <mxGraphModel dx="1769" dy="706" grid="1" gridSize="10" guides="1" tooltips="1" connect="1" arrows="1" fold="1" page="1" pageScale="1" pageWidth="827" pageHeight="1169" math="0" shadow="0">
      <root>
        <mxCell id="0" />
        <mxCell id="1" parent="0" />
        <mxCell id="osVeZTP1eFZkCsSN0bvi-13" style="edgeStyle=orthogonalEdgeStyle;rounded=0;orthogonalLoop=1;jettySize=auto;html=1;exitX=0.5;exitY=1;exitDx=0;exitDy=0;" edge="1" parent="1" source="osVeZTP1eFZkCsSN0bvi-1" target="osVeZTP1eFZkCsSN0bvi-3">
          <mxGeometry relative="1" as="geometry" />
        </mxCell>
        <mxCell id="osVeZTP1eFZkCsSN0bvi-1" value="&lt;font style=&quot;font-size: 18px;&quot;&gt;Begin&lt;/font&gt;" style="ellipse;whiteSpace=wrap;html=1;" vertex="1" parent="1">
          <mxGeometry x="380" y="70" width="120" height="80" as="geometry" />
        </mxCell>
        <mxCell id="osVeZTP1eFZkCsSN0bvi-14" value="" style="edgeStyle=orthogonalEdgeStyle;rounded=0;orthogonalLoop=1;jettySize=auto;html=1;" edge="1" parent="1" source="osVeZTP1eFZkCsSN0bvi-3" target="osVeZTP1eFZkCsSN0bvi-4">
          <mxGeometry relative="1" as="geometry" />
        </mxCell>
        <mxCell id="osVeZTP1eFZkCsSN0bvi-3" value="Khơi tạo khối vào ra GPIO&lt;div&gt;Cấu hình: CubeMX, Ngắt ngoài EXTI&lt;/div&gt;" style="rounded=0;whiteSpace=wrap;html=1;" vertex="1" parent="1">
          <mxGeometry x="345" y="200" width="190" height="60" as="geometry" />
        </mxCell>
        <mxCell id="osVeZTP1eFZkCsSN0bvi-4" value="HIển thị chế độ bình thường&lt;div&gt;Đ:13s&amp;nbsp; &amp;nbsp;X:10s&amp;nbsp; &amp;nbsp;V:3s&lt;/div&gt;" style="rounded=0;whiteSpace=wrap;html=1;" vertex="1" parent="1">
          <mxGeometry x="350" y="320" width="180" height="60" as="geometry" />
        </mxCell>
        <mxCell id="osVeZTP1eFZkCsSN0bvi-18" value="" style="edgeStyle=orthogonalEdgeStyle;rounded=0;orthogonalLoop=1;jettySize=auto;html=1;" edge="1" parent="1" source="osVeZTP1eFZkCsSN0bvi-6" target="osVeZTP1eFZkCsSN0bvi-8">
          <mxGeometry relative="1" as="geometry" />
        </mxCell>
        <mxCell id="osVeZTP1eFZkCsSN0bvi-6" value="Sleep == 0?" style="rhombus;whiteSpace=wrap;html=1;" vertex="1" parent="1">
          <mxGeometry x="240" y="440" width="140" height="80" as="geometry" />
        </mxCell>
        <mxCell id="osVeZTP1eFZkCsSN0bvi-20" style="edgeStyle=orthogonalEdgeStyle;rounded=0;orthogonalLoop=1;jettySize=auto;html=1;" edge="1" parent="1" source="osVeZTP1eFZkCsSN0bvi-8" target="osVeZTP1eFZkCsSN0bvi-9">
          <mxGeometry relative="1" as="geometry" />
        </mxCell>
        <mxCell id="osVeZTP1eFZkCsSN0bvi-8" value="HIển thị chế độ ngủ&lt;div&gt;Đèn vàng sáng nhấp nháy tần số 1 HZ&lt;/div&gt;" style="rounded=0;whiteSpace=wrap;html=1;" vertex="1" parent="1">
          <mxGeometry x="220" y="560" width="180" height="60" as="geometry" />
        </mxCell>
        <mxCell id="osVeZTP1eFZkCsSN0bvi-9" value="Reset == 0?" style="rhombus;whiteSpace=wrap;html=1;" vertex="1" parent="1">
          <mxGeometry x="370" y="680" width="140" height="80" as="geometry" />
        </mxCell>
        <mxCell id="osVeZTP1eFZkCsSN0bvi-19" value="" style="edgeStyle=orthogonalEdgeStyle;rounded=0;orthogonalLoop=1;jettySize=auto;html=1;" edge="1" parent="1" source="osVeZTP1eFZkCsSN0bvi-10" target="osVeZTP1eFZkCsSN0bvi-11">
          <mxGeometry relative="1" as="geometry" />
        </mxCell>
        <mxCell id="osVeZTP1eFZkCsSN0bvi-10" value="Rush == 0?" style="rhombus;whiteSpace=wrap;html=1;" vertex="1" parent="1">
          <mxGeometry x="500" y="440" width="140" height="80" as="geometry" />
        </mxCell>
        <mxCell id="osVeZTP1eFZkCsSN0bvi-21" style="edgeStyle=orthogonalEdgeStyle;rounded=0;orthogonalLoop=1;jettySize=auto;html=1;exitX=0.5;exitY=1;exitDx=0;exitDy=0;entryX=0.5;entryY=0;entryDx=0;entryDy=0;" edge="1" parent="1" source="osVeZTP1eFZkCsSN0bvi-11" target="osVeZTP1eFZkCsSN0bvi-9">
          <mxGeometry relative="1" as="geometry">
            <mxPoint x="430" y="680" as="targetPoint" />
          </mxGeometry>
        </mxCell>
        <mxCell id="osVeZTP1eFZkCsSN0bvi-11" value="HIển thị chế độ bình thường&lt;div&gt;Đ:18s&amp;nbsp; &amp;nbsp;X:15s&amp;nbsp; &amp;nbsp;V:3s&lt;/div&gt;" style="rounded=0;whiteSpace=wrap;html=1;" vertex="1" parent="1">
          <mxGeometry x="480" y="560" width="180" height="60" as="geometry" />
        </mxCell>
        <mxCell id="osVeZTP1eFZkCsSN0bvi-16" value="" style="endArrow=classic;html=1;rounded=0;exitX=0.5;exitY=1;exitDx=0;exitDy=0;entryX=0.5;entryY=0;entryDx=0;entryDy=0;" edge="1" parent="1" source="osVeZTP1eFZkCsSN0bvi-4" target="osVeZTP1eFZkCsSN0bvi-6">
          <mxGeometry width="50" height="50" relative="1" as="geometry">
            <mxPoint x="430" y="430" as="sourcePoint" />
            <mxPoint x="480" y="380" as="targetPoint" />
            <Array as="points">
              <mxPoint x="310" y="410" />
            </Array>
          </mxGeometry>
        </mxCell>
        <mxCell id="osVeZTP1eFZkCsSN0bvi-17" value="" style="endArrow=classic;html=1;rounded=0;entryX=0.5;entryY=0;entryDx=0;entryDy=0;" edge="1" parent="1" target="osVeZTP1eFZkCsSN0bvi-10">
          <mxGeometry width="50" height="50" relative="1" as="geometry">
            <mxPoint x="440" y="380" as="sourcePoint" />
            <mxPoint x="480" y="380" as="targetPoint" />
            <Array as="points">
              <mxPoint x="570" y="410" />
            </Array>
          </mxGeometry>
        </mxCell>
        <mxCell id="osVeZTP1eFZkCsSN0bvi-23" value="Đ" style="text;strokeColor=none;fillColor=none;align=left;verticalAlign=middle;spacingLeft=4;spacingRight=4;overflow=hidden;points=[[0,0.5],[1,0.5]];portConstraint=eastwest;rotatable=0;whiteSpace=wrap;html=1;" vertex="1" parent="1">
          <mxGeometry x="310" y="530" width="20" height="20" as="geometry" />
        </mxCell>
        <mxCell id="osVeZTP1eFZkCsSN0bvi-24" value="Đ" style="text;strokeColor=none;fillColor=none;align=left;verticalAlign=middle;spacingLeft=4;spacingRight=4;overflow=hidden;points=[[0,0.5],[1,0.5]];portConstraint=eastwest;rotatable=0;whiteSpace=wrap;html=1;" vertex="1" parent="1">
          <mxGeometry x="540" y="530" width="20" height="20" as="geometry" />
        </mxCell>
        <mxCell id="osVeZTP1eFZkCsSN0bvi-27" value="" style="endArrow=classic;html=1;rounded=0;exitX=1;exitY=0.5;exitDx=0;exitDy=0;" edge="1" parent="1" source="osVeZTP1eFZkCsSN0bvi-10">
          <mxGeometry width="50" height="50" relative="1" as="geometry">
            <mxPoint x="460" y="340" as="sourcePoint" />
            <mxPoint x="440" y="290" as="targetPoint" />
            <Array as="points">
              <mxPoint x="640" y="290" />
            </Array>
          </mxGeometry>
        </mxCell>
        <mxCell id="osVeZTP1eFZkCsSN0bvi-28" value="" style="endArrow=classic;html=1;rounded=0;exitX=0;exitY=0.5;exitDx=0;exitDy=0;" edge="1" parent="1" source="osVeZTP1eFZkCsSN0bvi-6">
          <mxGeometry width="50" height="50" relative="1" as="geometry">
            <mxPoint x="460" y="340" as="sourcePoint" />
            <mxPoint x="440" y="290" as="targetPoint" />
            <Array as="points">
              <mxPoint x="240" y="290" />
            </Array>
          </mxGeometry>
        </mxCell>
        <mxCell id="osVeZTP1eFZkCsSN0bvi-29" value="S" style="text;strokeColor=none;fillColor=none;align=left;verticalAlign=middle;spacingLeft=4;spacingRight=4;overflow=hidden;points=[[0,0.5],[1,0.5]];portConstraint=eastwest;rotatable=0;whiteSpace=wrap;html=1;" vertex="1" parent="1">
          <mxGeometry x="220" y="440" width="20" height="20" as="geometry" />
        </mxCell>
        <mxCell id="osVeZTP1eFZkCsSN0bvi-30" value="S" style="text;strokeColor=none;fillColor=none;align=left;verticalAlign=middle;spacingLeft=4;spacingRight=4;overflow=hidden;points=[[0,0.5],[1,0.5]];portConstraint=eastwest;rotatable=0;whiteSpace=wrap;html=1;" vertex="1" parent="1">
          <mxGeometry x="650" y="440" width="20" height="20" as="geometry" />
        </mxCell>
        <mxCell id="osVeZTP1eFZkCsSN0bvi-32" value="" style="endArrow=classic;html=1;rounded=0;exitX=0.5;exitY=1;exitDx=0;exitDy=0;" edge="1" parent="1" source="osVeZTP1eFZkCsSN0bvi-9">
          <mxGeometry width="50" height="50" relative="1" as="geometry">
            <mxPoint x="590" y="570" as="sourcePoint" />
            <mxPoint x="640" y="290.7655736019737" as="targetPoint" />
            <Array as="points">
              <mxPoint x="440" y="800" />
              <mxPoint x="720" y="800" />
              <mxPoint x="720" y="291" />
            </Array>
          </mxGeometry>
        </mxCell>
        <mxCell id="osVeZTP1eFZkCsSN0bvi-33" value="Đ" style="text;strokeColor=none;fillColor=none;align=left;verticalAlign=middle;spacingLeft=4;spacingRight=4;overflow=hidden;points=[[0,0.5],[1,0.5]];portConstraint=eastwest;rotatable=0;whiteSpace=wrap;html=1;" vertex="1" parent="1">
          <mxGeometry x="450" y="770" width="20" height="20" as="geometry" />
        </mxCell>
        <mxCell id="osVeZTP1eFZkCsSN0bvi-34" value="" style="endArrow=classic;html=1;rounded=0;exitX=0;exitY=0.5;exitDx=0;exitDy=0;entryX=0;entryY=0.5;entryDx=0;entryDy=0;" edge="1" parent="1" source="osVeZTP1eFZkCsSN0bvi-9" target="osVeZTP1eFZkCsSN0bvi-23">
          <mxGeometry width="50" height="50" relative="1" as="geometry">
            <mxPoint x="440" y="700" as="sourcePoint" />
            <mxPoint x="490" y="650" as="targetPoint" />
            <Array as="points">
              <mxPoint x="160" y="720" />
              <mxPoint x="160" y="540" />
            </Array>
          </mxGeometry>
        </mxCell>
        <mxCell id="osVeZTP1eFZkCsSN0bvi-35" value="" style="endArrow=classic;html=1;rounded=0;exitX=1;exitY=0.5;exitDx=0;exitDy=0;" edge="1" parent="1" source="osVeZTP1eFZkCsSN0bvi-9">
          <mxGeometry width="50" height="50" relative="1" as="geometry">
            <mxPoint x="440" y="700" as="sourcePoint" />
            <mxPoint x="570" y="540" as="targetPoint" />
            <Array as="points">
              <mxPoint x="680" y="720" />
              <mxPoint x="680" y="540" />
            </Array>
          </mxGeometry>
        </mxCell>
        <mxCell id="osVeZTP1eFZkCsSN0bvi-36" value="S" style="text;strokeColor=none;fillColor=none;align=left;verticalAlign=middle;spacingLeft=4;spacingRight=4;overflow=hidden;points=[[0,0.5],[1,0.5]];portConstraint=eastwest;rotatable=0;whiteSpace=wrap;html=1;" vertex="1" parent="1">
          <mxGeometry x="330" y="690" width="20" height="20" as="geometry" />
        </mxCell>
        <mxCell id="osVeZTP1eFZkCsSN0bvi-37" value="S" style="text;strokeColor=none;fillColor=none;align=left;verticalAlign=middle;spacingLeft=4;spacingRight=4;overflow=hidden;points=[[0,0.5],[1,0.5]];portConstraint=eastwest;rotatable=0;whiteSpace=wrap;html=1;" vertex="1" parent="1">
          <mxGeometry x="530" y="690" width="20" height="20" as="geometry" />
        </mxCell>
      </root>
    </mxGraphModel>
  </diagram>
</mxfile>
